<svg width="40" height="40" viewBox="0 0 40 40" fill="none" xmlns="http://www.w3.org/2000/svg">
<path d="M16.8 2.3999C9.29687 2.3999 3.2 8.49678 3.2 15.9999C3.2 23.503 9.29687 29.5999 16.8 29.5999C19.7687 29.5999 22.5125 28.6437 24.75 27.0249L35.275 37.5249L37.525 35.2749L27.125 24.8499C29.1687 22.4687 30.4 19.378 30.4 15.9999C30.4 8.49678 24.3031 2.3999 16.8 2.3999ZM16.8 3.9999C23.4375 3.9999 28.8 9.3624 28.8 15.9999C28.8 22.6374 23.4375 27.9999 16.8 27.9999C10.1625 27.9999 4.8 22.6374 4.8 15.9999C4.8 9.3624 10.1625 3.9999 16.8 3.9999Z" fill="black"/>
</svg>
